HIERARCHY
ROOT pelvis
{
	OFFSET 0.000000 0.857207 -0.000000
	CHANNELS 6 Xposition Yposition Zposition Xrotation Yrotation Zrotation
	JOINT spine
	{
		OFFSET 0.000000 0.000000 0.000000
		CHANNELS 6 Xposition Yposition Zposition Xrotation Yrotation Zrotation
		JOINT spine.001
		{
			OFFSET 0.000000 0.260059 0.013629
			CHANNELS 3 Xrotation Yrotation Zrotation
			JOINT neck
			{
				OFFSET 0.000000 0.258474 -0.031737
				CHANNELS 6 Xposition Yposition Zposition Xrotation Yrotation Zrotation
				JOINT face
				{
					OFFSET 0.000000 0.214105 -0.003737
					CHANNELS 6 Xposition Yposition Zposition Xrotation Yrotation Zrotation
					End Site
					{
						OFFSET 0.000000 -0.008354 0.030907
					}
				}
			}
			JOINT shoulder.L
			{
				OFFSET 0.000000 0.258474 -0.031737
				CHANNELS 6 Xposition Yposition Zposition Yrotation Xrotation Zrotation
				JOINT upper_arm.L
				{
					OFFSET 0.166496 0.000000 0.000000
					CHANNELS 6 Xposition Yposition Zposition Xrotation Yrotation Zrotation
					JOINT forearm.L
					{
						OFFSET 0.284837 0.001031 -0.000124
						CHANNELS 6 Xposition Yposition Zposition Xrotation Yrotation Zrotation
						End Site
						{
							OFFSET 0.239246 -0.001418 0.004062
						}
					}
				}
			}
			JOINT shoulder.R
			{
				OFFSET 0.000000 0.258474 -0.031737
				CHANNELS 6 Xposition Yposition Zposition Yrotation Xrotation Zrotation
				JOINT upper_arm.R
				{
					OFFSET -0.166496 0.000000 0.000000
					CHANNELS 6 Xposition Yposition Zposition Xrotation Yrotation Zrotation
					JOINT forearm.R
					{
						OFFSET -0.289323 0.001031 -0.000124
						CHANNELS 6 Xposition Yposition Zposition Xrotation Yrotation Zrotation
						End Site
						{
							OFFSET -0.237959 -0.001418 0.004040
						}
					}
				}
			}
		}
	}
	JOINT pelvis.L
	{
		OFFSET 0.000000 0.000000 0.000000
		CHANNELS 6 Xposition Yposition Zposition Yrotation Xrotation Zrotation
		End Site
		{
			OFFSET 0.104056 0.000000 0.000000
		}
	}
	JOINT pelvis.R
	{
		OFFSET 0.000000 0.000000 0.000000
		CHANNELS 6 Xposition Yposition Zposition Yrotation Xrotation Zrotation
		End Site
		{
			OFFSET -0.104056 0.000000 0.000000
		}
	}
	JOINT thigh.L
	{
		OFFSET 0.104056 0.000000 0.000000
		CHANNELS 6 Xposition Yposition Zposition Xrotation Yrotation Zrotation
		JOINT shin.L
		{
			OFFSET 0.020751 -0.395956 0.000000
			CHANNELS 6 Xposition Yposition Zposition Xrotation Yrotation Zrotation
			JOINT foot.L
			{
				OFFSET 0.020178 -0.385016 0.000000
				CHANNELS 6 Xposition Yposition Zposition Xrotation Yrotation Zrotation
				End Site
				{
					OFFSET 0.016943 -0.072543 0.172755
				}
			}
		}
	}
	JOINT thigh.R
	{
		OFFSET -0.104056 0.000000 0.000000
		CHANNELS 6 Xposition Yposition Zposition Xrotation Yrotation Zrotation
		JOINT shin.R
		{
			OFFSET -0.021340 -0.407196 0.000000
			CHANNELS 6 Xposition Yposition Zposition Xrotation Yrotation Zrotation
			JOINT foot.R
			{
				OFFSET -0.019847 -0.378703 0.000000
				CHANNELS 6 Xposition Yposition Zposition Xrotation Yrotation Zrotation
				End Site
				{
					OFFSET -0.016568 -0.070938 0.168933
				}
			}
		}
	}
}
MOTION
Frames: 5
Frame Time: 0.041667
0.009035 -0.007214 -0.011274 -0.000000 -5.250918 -0.000000 -0.000000 0.000000 -0.000000 -8.961069 0.076488 -0.582541 10.017967 4.098792 -0.504143 0.000000 0.258475 -0.031737 8.350135 3.431693 1.731928 -0.000000 0.214105 -0.003737 4.985287 0.000000 0.000000 -0.000000 0.258475 -0.031737 0.347568 -0.008593 2.832392 0.166496 0.000000 0.000000 -6.316345 -6.792981 -85.825999 0.284837 0.001031 -0.000124 -0.403880 -11.167276 -4.166337 -0.000000 0.258475 -0.031737 0.340817 -0.008263 2.777132 -0.166496 0.000000 0.000000 -7.353496 9.177613 77.475662 -0.289323 0.001031 -0.000124 -0.489346 8.258183 7.942467 -0.000000 0.000000 -0.000000 0.000036 0.000000 -0.232562 0.000000 0.000000 -0.000000 0.000000 0.000000 -0.232595 0.104055 -0.000422 -0.000000 1.032618 -0.000072 -6.006869 0.020751 -0.395956 0.000000 6.858754 0.774764 6.874361 0.020178 -0.385016 0.000000 -7.958014 -5.784133 -2.124192 -0.104055 0.000422 0.000000 8.172127 -0.228944 2.795992 -0.021340 -0.407196 0.000000 -11.394013 0.880316 -2.807100 -0.019847 -0.378703 0.000000 4.155948 6.298855 2.798577 
0.008994 -0.007163 -0.011183 -0.000000 -5.269495 -0.000000 -0.000000 -0.000000 -0.000000 -8.959069 0.077170 -0.587782 10.018115 4.112975 -0.505885 -0.000000 0.258475 -0.031737 8.362721 3.454141 1.738291 -0.000000 0.214105 -0.003737 4.958772 -0.000000 -0.000000 -0.000000 0.258475 -0.031736 0.348311 -0.008624 2.838620 0.166496 -0.000000 0.000000 -6.296055 -6.771975 -85.817830 0.284837 0.001031 -0.000124 -0.406592 -11.177114 -4.194549 -0.000000 0.258475 -0.031736 0.341555 -0.008295 2.783363 -0.166496 0.000000 -0.000000 -7.338520 9.160698 77.464645 -0.289323 0.001031 -0.000124 -0.494772 8.319206 7.956555 -0.000000 -0.000000 0.000000 -0.000053 -0.000000 -0.231020 -0.000000 0.000000 0.000000 0.000000 0.000000 -0.230987 0.104055 -0.000420 0.000000 1.040132 -0.000009 -6.000081 0.020751 -0.395956 0.000000 6.862730 0.774770 6.867126 0.020178 -0.385016 0.000000 -7.978512 -5.779188 -2.120820 -0.104055 0.000420 -0.000000 8.143518 -0.228685 2.788283 -0.021340 -0.407196 0.000000 -11.339246 0.874909 -2.795566 -0.019847 -0.378703 0.000000 4.141226 6.308319 2.801729 
0.008992 -0.007098 -0.011070 -0.000000 -5.276866 -0.000000 -0.000000 0.000000 -0.000000 -8.961011 0.077488 -0.590194 10.018215 4.126659 -0.507574 0.000000 0.258474 -0.031737 8.380841 3.508564 1.746418 -0.000000 0.214106 -0.003737 4.927972 -0.000001 -0.000000 -0.000000 0.258474 -0.031737 0.348874 -0.008657 2.842814 0.166496 -0.000000 0.000000 -6.283639 -6.759090 -85.812229 0.284837 0.001031 -0.000124 -0.408294 -11.173600 -4.217421 -0.000000 0.258474 -0.031737 0.342111 -0.008323 2.787639 -0.166496 0.000000 0.000000 -7.316032 9.134867 77.450452 -0.289323 0.001031 -0.000124 -0.499170 8.368860 7.967601 -0.000000 0.000000 0.000000 0.000053 0.000000 -0.227246 0.000000 0.000000 0.000000 0.000000 0.000000 -0.227246 0.104055 -0.000413 -0.000000 1.049335 -0.000017 -6.001221 0.020751 -0.395956 0.000000 6.861858 0.774791 6.868985 0.020178 -0.385016 0.000000 -7.992034 -5.780372 -2.120864 -0.104055 0.000413 0.000000 8.134391 -0.228727 2.784101 -0.021340 -0.407196 0.000000 -11.312780 0.872465 -2.791677 -0.019847 -0.378703 0.000000 4.128650 6.309380 2.801730 
0.009035 -0.007023 -0.010896 -0.000000 -5.271835 -0.000000 -0.000000 -0.000000 -0.000000 -8.969274 0.077429 -0.589378 10.018399 4.140196 -0.509247 0.000000 0.258474 -0.031737 8.404538 3.586940 1.755626 0.000000 0.214105 -0.003737 4.898527 0.000001 0.000000 -0.000000 0.258474 -0.031737 0.349292 -0.008679 2.845997 0.166496 -0.000000 0.000000 -6.270540 -6.744941 -85.812495 0.284837 0.001031 -0.000124 -0.409676 -11.166310 -4.238330 -0.000000 0.258475 -0.031737 0.342536 -0.008349 2.790825 -0.166496 0.000000 0.000000 -7.284537 9.098999 77.428233 -0.289323 0.001031 -0.000124 -0.502823 8.406777 7.980962 -0.000000 -0.000000 0.000000 -0.000029 -0.000000 -0.227968 -0.000000 0.000000 0.000000 0.000000 0.000000 -0.227935 0.104055 -0.000414 0.000000 1.065654 -0.000100 -6.010165 0.020751 -0.395956 0.000000 6.850999 0.774102 6.877998 0.020178 -0.385016 0.000000 -8.000857 -5.784591 -2.122637 -0.104055 0.000414 -0.000000 8.144107 -0.229218 2.781080 -0.021340 -0.407196 0.000000 -11.307459 0.871997 -2.791156 -0.019847 -0.378703 0.000000 4.110617 6.299501 2.797354 
0.009073 -0.006934 -0.010711 -0.000000 -5.252836 -0.000000 -0.000000 0.000000 -0.000000 -8.979052 0.077584 -0.590109 10.018421 4.145222 -0.509866 0.000000 0.258475 -0.031737 8.428008 3.683406 1.761446 -0.000000 0.214105 -0.003737 4.876162 0.000000 0.000000 -0.000000 0.258475 -0.031737 0.349630 -0.008695 2.849004 0.166496 -0.000000 0.000000 -6.251673 -6.724590 -85.811662 0.284837 0.001031 -0.000124 -0.411972 -11.168088 -4.265748 -0.000000 0.258475 -0.031737 0.342855 -0.008360 2.793750 -0.166496 0.000000 0.000000 -7.251920 9.062098 77.403351 -0.289323 0.001031 -0.000124 -0.506092 8.437041 7.997842 -0.000000 -0.000000 -0.000000 -0.000083 -0.000000 -0.233416 -0.000000 0.000000 -0.000000 0.000000 -0.000000 -0.233383 0.104055 -0.000424 0.000000 1.082092 -0.000193 -6.019847 0.020751 -0.395956 0.000000 6.837239 0.773272 6.889941 0.020178 -0.385016 0.000000 -8.008303 -5.795439 -2.127870 -0.104055 0.000424 0.000000 8.160748 -0.229701 2.780860 -0.021340 -0.407196 0.000000 -11.309406 0.872360 -2.793235 -0.019847 -0.378703 0.000000 4.093410 6.278692 2.788805 
